<?xml version="1.0" encoding="UTF-8"?>
<svg id="Layer_1" xmlns="http://www.w3.org/2000/svg" version="1.1" viewBox="0 0 400 450">
  <!-- Generator: Adobe Illustrator 29.7.1, SVG Export Plug-In . SVG Version: 2.1.1 Build 8)  -->
  <defs>
    <style>
      .st0 {
        stroke-width: .5px;
      }

      .st0, .st1, .st2, .st3, .st4, .st5, .st6, .st7, .st8 {
        fill-opacity: 0;
      }

      .st0, .st1, .st2, .st3, .st4, .st8 {
        stroke: #000;
      }

      .st1 {
        stroke-width: 1.58px;
      }

      .st2 {
        stroke-width: 1.59px;
      }

      .st9 {
        fill: #fff;
      }

      .st3 {
        stroke-width: 1.36px;
      }

      .st4 {
        stroke-width: 1.73px;
      }

      .st5 {
        stroke: gray;
      }

      .st10 {
        display: none;
      }

      .st11 {
        fill: gray;
      }

      .st12 {
        fill: #009916;
      }

      .st6 {
        stroke: #009916;
      }

      .st7 {
        stroke: #fff;
        stroke-width: .64px;
      }

      .st8 {
        stroke-width: 1.73px;
      }
    </style>
  </defs>
  <g id="Layer_2">
    <g>
      <g id="path3964">
        <path d="M330.01,223c71.17,147.12-60.52,173.93-141.92,101.93-118.13-62.28-100.98-186.72,18.7-177.64,42.2,6.92,64.14,24.65,123.22,75.7Z"/>
        <path class="st2" d="M330.01,223c71.17,147.12-60.52,173.93-141.92,101.93-118.13-62.28-100.98-186.72,18.7-177.64,42.2,6.92,64.14,24.65,123.22,75.7Z"/>
      </g>
      <g id="path3966">
        <path d="M344.11,266.71l26.79-64.52-62.54,16.36,35.75,48.16Z"/>
        <path class="st1" d="M344.11,266.71l26.79-64.52-62.54,16.36,35.75,48.16Z"/>
      </g>
      <g id="path3968">
        <path d="M227.11,167.21l-9-66.5-57,66.5h66Z"/>
        <path class="st1" d="M227.11,167.21l-9-66.5-57,66.5h66Z"/>
      </g>
      <g id="path3970">
        <path d="M188.98,325.23s-41.37,69.49-36.53,82.16c4.84,12.68-59.36-13.62-64.08-35.59-10.27-37.97,63.74-51.07,80.11-63.75,50.9-39.63,20.5,17.17,20.5,17.17h0Z"/>
        <path class="st1" d="M188.98,325.23s-41.37,69.49-36.53,82.16c4.84,12.68-59.36-13.62-64.08-35.59-10.27-37.97,63.74-51.07,80.11-63.75,50.9-39.63,20.5,17.17,20.5,17.17h0Z"/>
      </g>
      <g id="path3982" class="st10">
        <path d="M99.19,352.49s-35.4-25.46-30.12-62.78c5.28-37.33,25.61-49.89,31.9-64.58,4.38-10.22,12.29-55.28-36.13-59.33-48.41-4.06-65.35,27.1-54.83,45.23,10.52,18.13,38.56,35.94,25.22,17.29-12.87-18.01-27.35-44.07,12.32-48.88,30.54-3.7,38.03,1.2,43.98,24.68,7.2,28.36-50.18,54.77-37.95,106.72,8.25,35.04,21.14,47.48,28.54,54.13,0,0,5.35,4.62,5.35,4.62,9.3,6.69.59-.86.59-.86l11.12-16.22Z"/>
        <path class="st3" d="M99.19,352.49s-35.4-25.46-30.12-62.78c5.28-37.33,25.61-49.89,31.9-64.58,4.38-10.22,12.29-55.28-36.13-59.33-48.41-4.06-65.35,27.1-54.83,45.23,10.52,18.13,38.56,35.94,25.22,17.29-12.87-18.01-27.35-44.07,12.32-48.88,30.54-3.7,38.03,1.2,43.98,24.68,7.2,28.36-50.18,54.77-37.95,106.72,8.25,35.04,21.14,47.48,28.54,54.13,0,0,5.35,4.62,5.35,4.62,9.3,6.69.59-.86.59-.86l11.12-16.22Z"/>
      </g>
      <g id="g4055">
        <g id="path4057">
          <path class="st9" d="M230.26,192.73c-2.11-10.61-1.04-42.01-44.63-29.48,1.78,12.04,7.24,23.41,12.27,26.86,1.35.93,15.52,8.3,32.36,2.62Z"/>
          <path class="st7" d="M230.26,192.73c-2.11-10.61-1.04-42.01-44.63-29.48,1.78,12.04,7.24,23.41,12.27,26.86,1.35.93,15.52,8.3,32.36,2.62Z"/>
        </g>
        <g id="path4059">
          <path d="M197.57,169.07c-4.93,7.2-3.7,16.61,2.74,21.03,6.45,4.42,15.67,2.16,20.6-5.03,4.93-7.2,3.7-16.61-2.74-21.03-6.45-4.42-15.67-2.16-20.6,5.03Z"/>
          <path class="st0" d="M197.57,169.07c-4.93,7.2-3.7,16.61,2.74,21.03,6.45,4.42,15.67,2.16,20.6-5.03,4.93-7.2,3.7-16.61-2.74-21.03-6.45-4.42-15.67-2.16-20.6,5.03Z"/>
        </g>
      </g>
      <g id="g4049">
        <g id="path4025">
          <path class="st9" d="M331.11,260.37c-2.11-10.61-1.04-42.01-44.63-29.48,1.78,12.05,7.1,22.23,13.32,26.71,3.68,2.65,14.48,7.06,31.32,2.78Z"/>
          <path class="st7" d="M331.11,260.37c-2.11-10.61-1.04-42.01-44.63-29.48,1.78,12.05,7.1,22.23,13.32,26.71,3.68,2.65,14.48,7.06,31.32,2.78Z"/>
        </g>
        <g id="path4027">
          <path d="M298.41,236.71c-4.93,7.2-3.7,16.61,2.74,21.03s15.67,2.17,20.6-5.03c4.93-7.2,3.7-16.61-2.74-21.03-6.45-4.42-15.67-2.17-20.6,5.03Z"/>
          <path class="st0" d="M298.41,236.71c-4.93,7.2-3.7,16.61,2.74,21.03s15.67,2.17,20.6-5.03c4.93-7.2,3.7-16.61-2.74-21.03-6.45-4.42-15.67-2.17-20.6,5.03Z"/>
        </g>
      </g>
      <g id="g4037">
        <g id="path4021">
          <path class="st9" d="M162.71,175.06c-29.01,42.33-14.91,102.43,31.49,134.23,46.4,31.8,107.53,23.26,136.54-19.07.52-.76,1.03-1.53,1.52-2.3l-85.54-55.27-84.02-57.58Z"/>
          <path class="st8" d="M162.71,175.06c-29.01,42.33-14.91,102.43,31.49,134.23,46.4,31.8,107.53,23.26,136.54-19.07.52-.76,1.03-1.53,1.52-2.3l-85.54-55.27-84.02-57.58Z"/>
        </g>
        <path id="path4023" class="st4" d="M309.23,312.39l16.77-30.01-53.69,43.24,30.08-54.98-64.4,55.17,39.24-73.9-64.76,66.78,43.91-82.55-67.18,66.61,41.67-81.13-63.03,60.56,35.28-81.05-48.7,52.59,23.89-68.12-30.4,36.97,2.77-4.03-3.11.84"/>
      </g>
      <g>
        <path class="st12" d="M304.38,251.94c.67-.35,4.15-2.89,7.39-7.63s5.2-10.33,4.36-9.52c-.58.56-4.04,2.97-7.28,7.7s-5.07,9.76-4.47,9.44Z"/>
        <path class="st6" d="M304.38,251.94c.67-.35,4.15-2.89,7.39-7.63s5.2-10.33,4.36-9.52c-.58.56-4.04,2.97-7.28,7.7s-5.07,9.76-4.47,9.44Z"/>
      </g>
      <g>
        <path class="st12" d="M203.33,184.6c.67-.35,4.14-2.89,7.39-7.63,3.24-4.73,5.2-10.33,4.36-9.51-.58.56-4.04,2.97-7.28,7.7-3.25,4.73-5.07,9.76-4.47,9.44Z"/>
        <path class="st6" d="M203.33,184.6c.67-.35,4.14-2.89,7.39-7.63,3.24-4.73,5.2-10.33,4.36-9.51-.58.56-4.04,2.97-7.28,7.7-3.25,4.73-5.07,9.76-4.47,9.44Z"/>
      </g>
      <g>
        <path class="st11" d="M341.11,243.21l8-23-17,5,9,18Z"/>
        <path class="st5" d="M341.11,243.21l8-23-17,5,9,18Z"/>
      </g>
      <g>
        <path class="st11" d="M212.08,145.79l-2.46-17.55-15.01,15.97,17.46,1.58Z"/>
        <path class="st5" d="M212.08,145.79l-2.46-17.55-15.01,15.97,17.46,1.58Z"/>
      </g>
    </g>
    <g id="path39821" data-name="path3982">
      <path d="M86.11,365.71c-71-89-2.01-271.77,8.5-283.5,4.95-5.52,10.52-22.25,20.5-30.5,49-40.5,85.68,28.81,58,55-18.5,17.5-56-19.5-19.5-7.5,21.03,6.91,6.5-69.5-34.5-21-11.41,13.5-36.27,118.73-38,124.5-9,30,15.7,138.45,18,147l-13,16Z"/>
      <path class="st3" d="M86.11,365.71c-71-89-2.01-271.77,8.5-283.5,4.95-5.52,10.52-22.25,20.5-30.5,49-40.5,85.68,28.81,58,55-18.5,17.5-56-19.5-19.5-7.5,21.03,6.91,6.5-69.5-34.5-21-11.41,13.5-36.27,118.73-38,124.5-9,30,15.7,138.45,18,147l-13,16Z"/>
    </g>
  </g>
</svg>